#!OML:ASF I:\golf\golf\golf 2\Subject 1\2002-09-07\Subject1.ASF
:FULLY-SPECIFIED
:DEGREES
195
root 1.13415 17.4083 -6.36688 16.0145 -8.95314 -2.91856
lowerback 15.6371 4.01061 -7.52943
upperback 9.55575 4.25244 2.42025
thorax 0.765024 1.73707 6.1638
lowerneck -15.8247 2.10947 0.601465
upperneck 31.3086 5.84385 -8.94085
head 13.5522 1.4335 -2.69621
rclavicle 2.18663e-015 6.16232e-015
rhumerus -0.24712 20.9178 -80.2003
rradius 36.9357
rwrist -6.43372
rhand -30.592 16.0564
rfingers 7.12502
rthumb -3.88914 -13.8878
lclavicle 2.18663e-015 6.16232e-015
lhumerus -16.8675 -65.0555 84.8822
lradius 52.8701
lwrist -8.9345
lhand -30.9694 9.33088
lfingers 7.12502
lthumb -4.25358 39.2682
rfemur -41.9091 -9.91126 20.4374
rtibia 68.4591
rfoot -6.91188 6.619
rtoes -10.6663
lfemur -44.8369 6.09578 -12.7457
ltibia 35.1809
lfoot -3.48523 -5.28133
ltoes -7.7964
196
root 1.16097 17.3851 -6.34935 16.1497 -8.68418 -3.04699
lowerback 16.2876 4.05918 -7.38964
upperback 9.75937 4.28397 2.52953
thorax 0.641214 1.75165 6.17132
lowerneck -15.9203 2.03351 0.459649
upperneck 30.9913 5.78074 -9.03356
head 13.4336 1.38557 -2.7067
rclavicle -8.74653e-015 2.50469e-014
rhumerus 0.653946 20.8792 -79.8622
rradius 37.1091
rwrist -6.26001
rhand -30.4143 15.5694
rfingers 7.12502
rthumb -3.71753 -14.3779
lclavicle -8.74653e-015 2.50469e-014
lhumerus -15.7364 -66.048 83.7105
lradius 53.0023
lwrist -9.10874
lhand -31.5367 9.70713
lfingers 7.12502
lthumb -4.80137 39.6327
rfemur -43.0737 -10.4564 20.5811
rtibia 69.236
rfoot -7.67748 6.10057
rtoes -10.8113
lfemur -45.4379 6.30167 -12.8614
ltibia 35.9138
lfoot -3.72824 -5.65471
ltoes -7.45529
197
root 1.18869 17.3572 -6.33269 16.2648 -8.44057 -3.21685
lowerback 17.0377 4.11096 -7.17427
upperback 9.95353 4.32366 2.64827
thorax 0.459765 1.77501 6.13946
lowerneck -15.999 1.98502 0.325795
upperneck 30.6896 5.76714 -9.16096
head 13.3244 1.35592 -2.72494
rclavicle 2.18663e-015 5.96354e-015
rhumerus 1.62694 21.1004 -79.3349
rradius 37.3596
rwrist -6.42884
rhand -30.9394 16.0442
rfingers 7.12502
rthumb -4.22466 -13.8937
lclavicle 2.18663e-015 5.96354e-015
lhumerus -14.7178 -66.8165 82.5922
lradius 53.2353
lwrist -9.44097
lhand -31.6993 10.5556
lfingers 7.12502
lthumb -4.95841 40.4776
rfemur -44.1473 -10.9247 20.7536
rtibia 69.7599
rfoot -8.2908 5.20087
rtoes -9.96344
lfemur -46.007 6.50977 -12.9311
ltibia 36.6568
lfoot -3.99305 -5.9957
ltoes -7.91752
198
root 1.21266 17.326 -6.32704 16.4611 -8.05845 -3.39773
lowerback 17.8714 4.16098 -6.92544
upperback 10.0627 4.36416 2.81219
thorax 0.144521 1.80663 6.13013
lowerneck -15.9338 1.85508 0.153156
upperneck 30.2611 5.63905 -9.31586
head 13.1237 1.27761 -2.76087
rclavicle -2.96189e-014 -7.55382e-015
rhumerus 2.57505 21.2007 -78.7584
rradius 37.5134
rwrist -6.6243
rhand -31.3421 16.5572
rfingers 7.12502
rthumb -4.61345 -13.3726
lclavicle -2.96189e-014 -7.55382e-015
lhumerus -13.7706 -67.6129 81.6951
lradius 53.3506
lwrist -9.50724
lhand -32.3321 11.1321
lfingers 7.12502
lthumb -5.56941 41.0389
rfemur -45.2609 -11.441 21.0165
rtibia 70.0351
rfoot -8.9256 4.07491
rtoes -10.0691
lfemur -46.7333 6.69367 -12.9975
ltibia 37.3596
lfoot -4.18871 -6.42695
ltoes -8.25404
199
root 1.2289 17.3025 -6.32481 16.691 -7.65889 -3.69324
lowerback 18.5927 4.24274 -6.62026
upperback 10.2532 4.46865 3.02062
thorax -0.0316963 1.86277 6.1321
lowerneck -15.95 1.6902 -0.0409605
upperneck 29.7881 5.43648 -9.38267
head 12.9149 1.17541 -2.76777
rclavicle 1.47101e-014 -2.06736e-014
rhumerus 3.5184 20.8104 -78.4495
rradius 37.5765
rwrist -6.44871
rhand -31.4146 16.6656
rfingers 7.12502
rthumb -4.68351 -13.2627
lclavicle 1.47101e-014 -2.06736e-014
lhumerus -12.4309 -68.4036 80.4515
lradius 53.4521
lwrist -9.35307
lhand -33.6748 11.2735
lfingers 7.12502
lthumb -6.86569 41.1421
rfemur -46.2895 -11.8209 21.4394
rtibia 70.0309
rfoot -9.57341 2.70452
rtoes -10.6271
lfemur -47.4601 6.86712 -12.8931
ltibia 38.0026
lfoot -4.37338 -6.82697
ltoes -8.11685
200
root 1.24765 17.2859 -6.31666 16.8627 -7.38076 -3.97355
lowerback 19.2455 4.332 -6.24672
upperback 10.5537 4.5997 3.15298
thorax -0.0442687 1.92676 6.0139
lowerneck -16.0403 1.56812 -0.165035
upperneck 29.2793 5.2676 -9.43137
head 12.7126 1.09717 -2.77321
rclavicle 3.73715e-014 -8.34896e-015
rhumerus 4.54656 20.3886 -78.1991
rradius 37.6867
rwrist -6.25291
rhand -31.5004 16.8142
rfingers 7.12502
rthumb -4.76634 -13.1122
lclavicle 3.73715e-014 -8.34896e-015
lhumerus -10.7659 -69.1397 78.7691
lradius 53.5959
lwrist -9.09629
lhand -35.161 11.6176
lfingers 7.12502
lthumb -8.30018 41.4345
rfemur -47.1452 -12.0749 21.7681
rtibia 69.7405
rfoot -10.1554 1.35908
rtoes -9.62073
lfemur -48.0072 6.94166 -12.7338
ltibia 38.5819
lfoot -4.56457 -7.01864
ltoes -7.76394
201
root 1.26985 17.2675 -6.30716 17.0441 -7.12485 -4.12835
lowerback 19.9015 4.38288 -5.97907
upperback 10.8599 4.66765 3.28595
thorax -0.0444739 1.95496 5.96997
lowerneck -16.127 1.46242 -0.403384
upperneck 28.697 5.16928 -9.54764
head 12.4881 1.03162 -2.77156
rclavicle -1.51076e-014 -7.7526e-015
rhumerus 5.64245 20.2752 -77.734
rradius 37.8844
rwrist -6.37615
rhand -31.4908 16.9334
rfingers 7.12502
rthumb -4.75707 -12.9932
lclavicle -1.51076e-014 -7.7526e-015
lhumerus -9.30058 -69.5076 77.3264
lradius 53.8093
lwrist -8.77635
lhand -36.2013 12.1078
lfingers 7.12502
lthumb -9.30403 41.8825
rfemur -47.9515 -12.3105 21.9129
rtibia 69.2106
rfoot -10.6088 0.179289
rtoes -8.02468
lfemur -48.5422 6.99442 -12.7307
ltibia 39.1016
lfoot -4.77764 -7.212
ltoes -7.27421
202
root 1.28735 17.2494 -6.29859 17.3258 -6.9195 -4.30262
lowerback 20.5031 4.45147 -5.81162
upperback 11.1263 4.74841 3.45628
thorax -0.0679268 1.98662 6.02197
lowerneck -16.2303 1.34808 -0.685921
upperneck 28.1675 5.07564 -9.66088
head 12.2912 0.962474 -2.76227
rclavicle 2.82274e-014 0
rhumerus 6.79045 20.2559 -77.222
rradius 38.0134
rwrist -6.66206
rhand -31.5522 17.1577
rfingers 7.12502
rthumb -4.81633 -12.7676
lclavicle 2.82274e-014 0
lhumerus -8.19459 -69.4682 76.2389
lradius 54.1885
lwrist -8.67858
lhand -36.9053 12.6372
lfingers 7.12502
lthumb -9.98331 42.3804
rfemur -48.7768 -12.39 22.0642
rtibia 68.4403
rfoot -10.9979 -0.925701
rtoes -7.08011
lfemur -49.1654 7.13081 -12.7292
ltibia 39.5885
lfoot -4.99475 -7.4421
ltoes -6.77011
203
root 1.3027 17.2339 -6.29162 17.6848 -6.85698 -4.37019
lowerback 21.0718 4.58651 -5.79803
upperback 11.3555 4.88851 3.55551
thorax -0.125489 2.04546 6.0708
lowerneck -16.4026 1.2405 -0.861379
upperneck 27.8005 4.97786 -9.7676
head 12.1767 0.896911 -2.77539
rclavicle -2.42517e-014 5.96354e-016
rhumerus 7.96539 20.164 -76.7884
rradius 38.0897
rwrist -6.80981
rhand -31.8943 17.2543
rfingers 7.12502
rthumb -5.14664 -12.6632
lclavicle -2.42517e-014 5.96354e-016
lhumerus -7.10774 -69.4514 75.0277
lradius 54.7064
lwrist -8.74043
lhand -37.8675 13.5928
lfingers 7.12502
lthumb -10.9114 43.2892
rfemur -49.6282 -12.3501 22.0594
rtibia 67.4422
rfoot -11.5003 -1.85663
rtoes -6.51109
lfemur -49.8248 7.21416 -12.802
ltibia 40.0508
lfoot -5.17035 -7.50056
ltoes -6.38754
204
root 1.31718 17.218 -6.28185 18.0878 -6.90701 -4.31468
lowerback 21.564 4.77565 -5.95053
upperback 11.5811 5.07126 3.62537
thorax -0.161048 2.11873 6.17508
lowerneck -16.6217 1.13999 -1.07315
upperneck 27.4481 4.91545 -9.90722
head 12.0818 0.837906 -2.79006
rclavicle 6.75868e-015 -7.15625e-015
rhumerus 9.05159 20.1307 -76.3077
rradius 38.32
rwrist -6.9219
rhand -32.4169 17.2464
rfingers 7.12502
rthumb -5.65129 -12.6582
lclavicle 6.75868e-015 -7.15625e-015
lhumerus -5.93706 -69.5032 73.7389
lradius 55.1848
lwrist -8.76744
lhand -38.8014 14.5981
lfingers 7.12502
lthumb -11.8122 44.2449
rfemur -50.4208 -12.212 21.8535
rtibia 66.2368
rfoot -11.9726 -2.63527
rtoes -5.56398
lfemur -50.4901 7.28796 -13.0013
ltibia 40.4791
lfoot -5.33897 -7.4714
ltoes -5.69881
205
root 1.33265 17.2051 -6.26689 18.5724 -6.87026 -4.43187
lowerback 21.9955 4.91992 -5.77421
upperback 11.7843 5.25756 3.69188
thorax -0.170572 2.20732 6.08763
lowerneck -16.6717 0.988816 -1.17689
upperneck 26.8726 4.73943 -10.1242
head 11.8625 0.744252 -2.86168
rclavicle -1.86858e-014 1.19271e-014
rhumerus 10.0886 20.0218 -75.821
rradius 38.5296
rwrist -7.20873
rhand -32.6873 17.5504
rfingers 7.12502
rthumb -5.91228 -12.3471
lclavicle -1.86858e-014 1.19271e-014
lhumerus -4.92242 -69.5693 72.6016
lradius 55.6978
lwrist -8.81754
lhand -39.3692 14.9731
lfingers 7.12502
lthumb -12.3596 44.5878
rfemur -51.144 -11.9772 21.8015
rtibia 64.8464
rfoot -12.2523 -3.41142
rtoes -3.70904
lfemur -51.2069 7.36918 -13.018
ltibia 40.8751
lfoot -5.42223 -7.474
ltoes -4.72008
206
root 1.34785 17.1932 -6.25523 19.0875 -6.69536 -4.62146
lowerback 22.5265 5.03735 -5.29137
upperback 11.9552 5.45983 3.71104
thorax -0.239238 2.3208 5.7616
lowerneck -16.7277 0.768931 -1.20266
upperneck 26.3265 4.41294 -10.2264
head 11.6449 0.604871 -2.92585
rclavicle 2.5842e-014 4.37326e-015
rhumerus 11.1121 19.4799 -75.483
rradius 38.5964
rwrist -7.29958
rhand -32.8753 17.9426
rfingers 7.12502
rthumb -6.09386 -11.9498
lclavicle 2.5842e-014 4.37326e-015
lhumerus -3.77075 -69.8369 71.2835
lradius 56.2524
lwrist -9.04953
lhand -39.7769 15.2363
lfingers 7.12502
lthumb -12.7528 44.8268
rfemur -51.8665 -11.6781 21.8014
rtibia 63.3477
rfoot -12.4103 -4.1275
rtoes -1.44292
lfemur -51.9822 7.3837 -12.9363
ltibia 41.2626
lfoot -5.44941 -7.51371
ltoes -4.13218
207
root 1.35723 17.1767 -6.24835 19.623 -6.61843 -4.66165
lowerback 23.0392 5.22468 -5.05292
upperback 12.114 5.70799 3.6906
thorax -0.326628 2.44867 5.51904
lowerneck -16.8513 0.577622 -1.30518
upperneck 25.871 4.13905 -10.2434
head 11.4777 0.485895 -2.93989
rclavicle 2.74323e-014 -1.98785e-015
rhumerus 12.0813 18.9129 -75.1547
rradius 38.7163
rwrist -7.13415
rhand -33.227 18.1079
rfingers 7.12502
rthumb -6.43341 -11.7744
lclavicle 2.74323e-014 -1.98785e-015
lhumerus -2.45658 -70.1446 69.8342
lradius 56.7561
lwrist -9.2978
lhand -40.2665 15.9643
lfingers 7.12502
lthumb -13.2247 45.5248
rfemur -52.631 -11.2567 21.5835
rtibia 61.7888
rfoot -12.5619 -4.83238
rtoes -2.00844
lfemur -52.8128 7.41965 -13.0177
ltibia 41.6653
lfoot -5.49104 -7.52209
ltoes -4.10102
